<?xml version="1.0" encoding="UTF-8" standalone="no"?>
<!DOCTYPE svg PUBLIC "-//W3C//DTD SVG 1.1//EN"
 "http://www.w3.org/Graphics/SVG/1.1/DTD/svg11.dtd">
<!-- Generated by graphviz version 14.1.1 (20251213.1925)
 -->
<!-- Title: InheritanceTree Pages: 1 -->
<svg width="902pt" height="1869pt"
 viewBox="0.00 0.00 902.00 1869.00" xmlns="http://www.w3.org/2000/svg" xmlns:xlink="http://www.w3.org/1999/xlink">
<g id="graph0" class="graph" transform="scale(1 1) rotate(0) translate(4 1864.5)">
<title>InheritanceTree</title>
<polygon fill="white" stroke="none" points="-4,4 -4,-1864.5 898,-1864.5 898,4 -4,4"/>
<text xml:space="preserve" text-anchor="middle" x="447" y="-7.2" font-family="Times New Roman,serif" font-size="14.00">simple_showcase &#45; Inheritance Hierarchy</text>
<!-- SSC_EVIDENCE_SECTION -->
<g id="node1" class="node">
<title>SSC_EVIDENCE_SECTION</title>
<path fill="none" stroke="black" d="M204.62,-420.5C204.62,-420.5 50.62,-420.5 50.62,-420.5 44.62,-420.5 38.62,-414.5 38.62,-408.5 38.62,-408.5 38.62,-396.5 38.62,-396.5 38.62,-390.5 44.62,-384.5 50.62,-384.5 50.62,-384.5 204.62,-384.5 204.62,-384.5 210.62,-384.5 216.62,-390.5 216.62,-396.5 216.62,-396.5 216.62,-408.5 216.62,-408.5 216.62,-414.5 210.62,-420.5 204.62,-420.5"/>
<text xml:space="preserve" text-anchor="middle" x="127.62" y="-397.45" font-family="Times New Roman,serif" font-size="14.00">SSC_EVIDENCE_SECTION</text>
</g>
<!-- SSC_SECTION -->
<g id="node2" class="node">
<title>SSC_SECTION</title>
<path fill="none" stroke="black" d="M513.88,-456.5C513.88,-456.5 434.12,-456.5 434.12,-456.5 428.12,-456.5 422.12,-450.5 422.12,-444.5 422.12,-444.5 422.12,-432.5 422.12,-432.5 422.12,-426.5 428.12,-420.5 434.12,-420.5 434.12,-420.5 513.88,-420.5 513.88,-420.5 519.88,-420.5 525.88,-426.5 525.88,-432.5 525.88,-432.5 525.88,-444.5 525.88,-444.5 525.88,-450.5 519.88,-456.5 513.88,-456.5"/>
<text xml:space="preserve" text-anchor="middle" x="474" y="-433.45" font-family="Times New Roman,serif" font-size="14.00">SSC_SECTION</text>
</g>
<!-- SSC_EVIDENCE_SECTION&#45;&gt;SSC_SECTION -->
<g id="edge1" class="edge">
<title>SSC_EVIDENCE_SECTION&#45;&gt;SSC_SECTION</title>
<path fill="none" stroke="black" d="M216.83,-402.5C319.45,-402.5 474,-402.5 474,-402.5 474,-402.5 474,-408.56 474,-408.56"/>
<polygon fill="none" stroke="black" points="470.5,-408.56 474,-418.56 477.5,-408.56 470.5,-408.56"/>
</g>
<!-- SSC_SHARED -->
<g id="node4" class="node">
<title>SSC_SHARED</title>
<path fill="none" stroke="black" d="M831.75,-960.5C831.75,-960.5 755,-960.5 755,-960.5 749,-960.5 743,-954.5 743,-948.5 743,-948.5 743,-936.5 743,-936.5 743,-930.5 749,-924.5 755,-924.5 755,-924.5 831.75,-924.5 831.75,-924.5 837.75,-924.5 843.75,-930.5 843.75,-936.5 843.75,-936.5 843.75,-948.5 843.75,-948.5 843.75,-954.5 837.75,-960.5 831.75,-960.5"/>
<text xml:space="preserve" text-anchor="middle" x="793.38" y="-937.45" font-family="Times New Roman,serif" font-size="14.00">SSC_SHARED</text>
</g>
<!-- SSC_SECTION&#45;&gt;SSC_SHARED -->
<g id="edge9" class="edge">
<title>SSC_SECTION&#45;&gt;SSC_SHARED</title>
<path fill="none" stroke="black" d="M526.28,-444.5C550.92,-444.5 575,-444.5 575,-444.5 575,-444.5 575,-929.64 575,-929.64 575,-929.64 731.21,-929.64 731.21,-929.64"/>
<polygon fill="none" stroke="black" points="731.21,-933.14 741.21,-929.64 731.21,-926.14 731.21,-933.14"/>
</g>
<!-- SSC_LOGGER -->
<g id="node11" class="node">
<title>SSC_LOGGER</title>
<path fill="none" stroke="black" d="M832.12,-384.5C832.12,-384.5 754.62,-384.5 754.62,-384.5 748.62,-384.5 742.62,-378.5 742.62,-372.5 742.62,-372.5 742.62,-360.5 742.62,-360.5 742.62,-354.5 748.62,-348.5 754.62,-348.5 754.62,-348.5 832.12,-348.5 832.12,-348.5 838.12,-348.5 844.12,-354.5 844.12,-360.5 844.12,-360.5 844.12,-372.5 844.12,-372.5 844.12,-378.5 838.12,-384.5 832.12,-384.5"/>
<text xml:space="preserve" text-anchor="middle" x="793.38" y="-361.45" font-family="Times New Roman,serif" font-size="14.00">SSC_LOGGER</text>
</g>
<!-- SSC_SECTION&#45;&gt;SSC_LOGGER -->
<g id="edge10" class="edge">
<title>SSC_SECTION&#45;&gt;SSC_LOGGER</title>
<path fill="none" stroke="black" d="M526.32,-432.5C616.82,-432.5 793,-432.5 793,-432.5 793,-432.5 793,-396.4 793,-396.4"/>
<polygon fill="none" stroke="black" points="796.5,-396.4 793,-386.4 789.5,-396.4 796.5,-396.4"/>
</g>
<!-- SSC_HAMBURGER_MENU -->
<g id="node3" class="node">
<title>SSC_HAMBURGER_MENU</title>
<path fill="none" stroke="black" d="M552.5,-1176.5C552.5,-1176.5 395.5,-1176.5 395.5,-1176.5 389.5,-1176.5 383.5,-1170.5 383.5,-1164.5 383.5,-1164.5 383.5,-1152.5 383.5,-1152.5 383.5,-1146.5 389.5,-1140.5 395.5,-1140.5 395.5,-1140.5 552.5,-1140.5 552.5,-1140.5 558.5,-1140.5 564.5,-1146.5 564.5,-1152.5 564.5,-1152.5 564.5,-1164.5 564.5,-1164.5 564.5,-1170.5 558.5,-1176.5 552.5,-1176.5"/>
<text xml:space="preserve" text-anchor="middle" x="474" y="-1153.45" font-family="Times New Roman,serif" font-size="14.00">SSC_HAMBURGER_MENU</text>
</g>
<!-- SSC_HAMBURGER_MENU&#45;&gt;SSC_SHARED -->
<g id="edge2" class="edge">
<title>SSC_HAMBURGER_MENU&#45;&gt;SSC_SHARED</title>
<path fill="none" stroke="black" d="M564.93,-1158.5C664.43,-1158.5 810,-1158.5 810,-1158.5 810,-1158.5 810,-972.43 810,-972.43"/>
<polygon fill="none" stroke="black" points="813.5,-972.43 810,-962.43 806.5,-972.43 813.5,-972.43"/>
</g>
<!-- SSC_HERO_SECTION -->
<g id="node5" class="node">
<title>SSC_HERO_SECTION</title>
<path fill="none" stroke="black" d="M189.25,-348.5C189.25,-348.5 66,-348.5 66,-348.5 60,-348.5 54,-342.5 54,-336.5 54,-336.5 54,-324.5 54,-324.5 54,-318.5 60,-312.5 66,-312.5 66,-312.5 189.25,-312.5 189.25,-312.5 195.25,-312.5 201.25,-318.5 201.25,-324.5 201.25,-324.5 201.25,-336.5 201.25,-336.5 201.25,-342.5 195.25,-348.5 189.25,-348.5"/>
<text xml:space="preserve" text-anchor="middle" x="127.62" y="-325.45" font-family="Times New Roman,serif" font-size="14.00">SSC_HERO_SECTION</text>
</g>
<!-- SSC_HERO_SECTION&#45;&gt;SSC_SECTION -->
<g id="edge3" class="edge">
<title>SSC_HERO_SECTION&#45;&gt;SSC_SECTION</title>
<path fill="none" stroke="black" d="M201.6,-330.5C278.27,-330.5 387,-330.5 387,-330.5 387,-330.5 387,-435.93 387,-435.93 387,-435.93 410.12,-435.93 410.12,-435.93"/>
<polygon fill="none" stroke="black" points="410.12,-439.43 420.12,-435.93 410.12,-432.43 410.12,-439.43"/>
</g>
<!-- SSC_INVITATION_SECTION -->
<g id="node6" class="node">
<title>SSC_INVITATION_SECTION</title>
<path fill="none" stroke="black" d="M209.12,-276.5C209.12,-276.5 46.12,-276.5 46.12,-276.5 40.12,-276.5 34.12,-270.5 34.12,-264.5 34.12,-264.5 34.12,-252.5 34.12,-252.5 34.12,-246.5 40.12,-240.5 46.12,-240.5 46.12,-240.5 209.12,-240.5 209.12,-240.5 215.12,-240.5 221.12,-246.5 221.12,-252.5 221.12,-252.5 221.12,-264.5 221.12,-264.5 221.12,-270.5 215.12,-276.5 209.12,-276.5"/>
<text xml:space="preserve" text-anchor="middle" x="127.62" y="-253.45" font-family="Times New Roman,serif" font-size="14.00">SSC_INVITATION_SECTION</text>
</g>
<!-- SSC_INVITATION_SECTION&#45;&gt;SSC_SECTION -->
<g id="edge4" class="edge">
<title>SSC_INVITATION_SECTION&#45;&gt;SSC_SECTION</title>
<path fill="none" stroke="black" d="M221.26,-258.5C295.91,-258.5 388,-258.5 388,-258.5 388,-258.5 388,-430.79 388,-430.79 388,-430.79 410.48,-430.79 410.48,-430.79"/>
<polygon fill="none" stroke="black" points="410.48,-434.29 420.48,-430.79 410.48,-427.29 410.48,-434.29"/>
</g>
<!-- SSC_NAV_OVERLAY -->
<g id="node7" class="node">
<title>SSC_NAV_OVERLAY</title>
<path fill="none" stroke="black" d="M534.5,-1104.5C534.5,-1104.5 413.5,-1104.5 413.5,-1104.5 407.5,-1104.5 401.5,-1098.5 401.5,-1092.5 401.5,-1092.5 401.5,-1080.5 401.5,-1080.5 401.5,-1074.5 407.5,-1068.5 413.5,-1068.5 413.5,-1068.5 534.5,-1068.5 534.5,-1068.5 540.5,-1068.5 546.5,-1074.5 546.5,-1080.5 546.5,-1080.5 546.5,-1092.5 546.5,-1092.5 546.5,-1098.5 540.5,-1104.5 534.5,-1104.5"/>
<text xml:space="preserve" text-anchor="middle" x="474" y="-1081.45" font-family="Times New Roman,serif" font-size="14.00">SSC_NAV_OVERLAY</text>
</g>
<!-- SSC_NAV_OVERLAY&#45;&gt;SSC_SHARED -->
<g id="edge5" class="edge">
<title>SSC_NAV_OVERLAY&#45;&gt;SSC_SHARED</title>
<path fill="none" stroke="black" d="M536,-1068.27C536,-1032.23 536,-955.36 536,-955.36 536,-955.36 731.01,-955.36 731.01,-955.36"/>
<polygon fill="none" stroke="black" points="731.01,-958.86 741.01,-955.36 731.01,-951.86 731.01,-958.86"/>
</g>
<!-- SSC_PROBLEM_SECTION -->
<g id="node8" class="node">
<title>SSC_PROBLEM_SECTION</title>
<path fill="none" stroke="black" d="M203.12,-204.5C203.12,-204.5 52.12,-204.5 52.12,-204.5 46.12,-204.5 40.12,-198.5 40.12,-192.5 40.12,-192.5 40.12,-180.5 40.12,-180.5 40.12,-174.5 46.12,-168.5 52.12,-168.5 52.12,-168.5 203.12,-168.5 203.12,-168.5 209.12,-168.5 215.12,-174.5 215.12,-180.5 215.12,-180.5 215.12,-192.5 215.12,-192.5 215.12,-198.5 209.12,-204.5 203.12,-204.5"/>
<text xml:space="preserve" text-anchor="middle" x="127.62" y="-181.45" font-family="Times New Roman,serif" font-size="14.00">SSC_PROBLEM_SECTION</text>
</g>
<!-- SSC_PROBLEM_SECTION&#45;&gt;SSC_SECTION -->
<g id="edge6" class="edge">
<title>SSC_PROBLEM_SECTION&#45;&gt;SSC_SECTION</title>
<path fill="none" stroke="black" d="M215.36,-186.5C291.63,-186.5 390,-186.5 390,-186.5 390,-186.5 390,-425.64 390,-425.64 390,-425.64 410.24,-425.64 410.24,-425.64"/>
<polygon fill="none" stroke="black" points="410.24,-429.14 420.24,-425.64 410.24,-422.14 410.24,-429.14"/>
</g>
<!-- SSC_RECOGNITION_SECTION -->
<g id="node9" class="node">
<title>SSC_RECOGNITION_SECTION</title>
<path fill="none" stroke="black" d="M217,-132.5C217,-132.5 38.25,-132.5 38.25,-132.5 32.25,-132.5 26.25,-126.5 26.25,-120.5 26.25,-120.5 26.25,-108.5 26.25,-108.5 26.25,-102.5 32.25,-96.5 38.25,-96.5 38.25,-96.5 217,-96.5 217,-96.5 223,-96.5 229,-102.5 229,-108.5 229,-108.5 229,-120.5 229,-120.5 229,-126.5 223,-132.5 217,-132.5"/>
<text xml:space="preserve" text-anchor="middle" x="127.62" y="-109.45" font-family="Times New Roman,serif" font-size="14.00">SSC_RECOGNITION_SECTION</text>
</g>
<!-- SSC_RECOGNITION_SECTION&#45;&gt;SSC_SECTION -->
<g id="edge7" class="edge">
<title>SSC_RECOGNITION_SECTION&#45;&gt;SSC_SECTION</title>
<path fill="none" stroke="black" d="M229.42,-114.5C231.08,-114.5 232,-114.5 232,-114.5 232,-114.5 232,-446.21 232,-446.21 232,-446.21 410.27,-446.21 410.27,-446.21"/>
<polygon fill="none" stroke="black" points="410.27,-449.71 420.27,-446.21 410.27,-442.71 410.27,-449.71"/>
</g>
<!-- SSC_REVELATION_SECTION -->
<g id="node10" class="node">
<title>SSC_REVELATION_SECTION</title>
<path fill="none" stroke="black" d="M212.88,-60.5C212.88,-60.5 42.38,-60.5 42.38,-60.5 36.38,-60.5 30.38,-54.5 30.38,-48.5 30.38,-48.5 30.38,-36.5 30.38,-36.5 30.38,-30.5 36.38,-24.5 42.38,-24.5 42.38,-24.5 212.88,-24.5 212.88,-24.5 218.88,-24.5 224.88,-30.5 224.88,-36.5 224.88,-36.5 224.88,-48.5 224.88,-48.5 224.88,-54.5 218.88,-60.5 212.88,-60.5"/>
<text xml:space="preserve" text-anchor="middle" x="127.62" y="-37.45" font-family="Times New Roman,serif" font-size="14.00">SSC_REVELATION_SECTION</text>
</g>
<!-- SSC_REVELATION_SECTION&#45;&gt;SSC_SECTION -->
<g id="edge8" class="edge">
<title>SSC_REVELATION_SECTION&#45;&gt;SSC_SECTION</title>
<path fill="none" stroke="black" d="M225.29,-42.5C230.71,-42.5 234,-42.5 234,-42.5 234,-42.5 234,-441.07 234,-441.07 234,-441.07 410.11,-441.07 410.11,-441.07"/>
<polygon fill="none" stroke="black" points="410.11,-444.57 420.11,-441.07 410.11,-437.57 410.11,-444.57"/>
</g>
<!-- SSC_SHIFT_SECTION -->
<g id="node12" class="node">
<title>SSC_SHIFT_SECTION</title>
<path fill="none" stroke="black" d="M189.62,-564.5C189.62,-564.5 65.62,-564.5 65.62,-564.5 59.62,-564.5 53.62,-558.5 53.62,-552.5 53.62,-552.5 53.62,-540.5 53.62,-540.5 53.62,-534.5 59.62,-528.5 65.62,-528.5 65.62,-528.5 189.62,-528.5 189.62,-528.5 195.62,-528.5 201.62,-534.5 201.62,-540.5 201.62,-540.5 201.62,-552.5 201.62,-552.5 201.62,-558.5 195.62,-564.5 189.62,-564.5"/>
<text xml:space="preserve" text-anchor="middle" x="127.62" y="-541.45" font-family="Times New Roman,serif" font-size="14.00">SSC_SHIFT_SECTION</text>
</g>
<!-- SSC_SHIFT_SECTION&#45;&gt;SSC_SECTION -->
<g id="edge11" class="edge">
<title>SSC_SHIFT_SECTION&#45;&gt;SSC_SECTION</title>
<path fill="none" stroke="black" d="M202.04,-546.5C308.35,-546.5 491,-546.5 491,-546.5 491,-546.5 491,-468.33 491,-468.33"/>
<polygon fill="none" stroke="black" points="494.5,-468.33 491,-458.33 487.5,-468.33 494.5,-468.33"/>
</g>
<!-- SSC_UNLOCK_SECTION -->
<g id="node13" class="node">
<title>SSC_UNLOCK_SECTION</title>
<path fill="none" stroke="black" d="M199,-636.5C199,-636.5 56.25,-636.5 56.25,-636.5 50.25,-636.5 44.25,-630.5 44.25,-624.5 44.25,-624.5 44.25,-612.5 44.25,-612.5 44.25,-606.5 50.25,-600.5 56.25,-600.5 56.25,-600.5 199,-600.5 199,-600.5 205,-600.5 211,-606.5 211,-612.5 211,-612.5 211,-624.5 211,-624.5 211,-630.5 205,-636.5 199,-636.5"/>
<text xml:space="preserve" text-anchor="middle" x="127.62" y="-613.45" font-family="Times New Roman,serif" font-size="14.00">SSC_UNLOCK_SECTION</text>
</g>
<!-- SSC_UNLOCK_SECTION&#45;&gt;SSC_SECTION -->
<g id="edge12" class="edge">
<title>SSC_UNLOCK_SECTION&#45;&gt;SSC_SECTION</title>
<path fill="none" stroke="black" d="M211.19,-609.5C286.34,-609.5 385,-609.5 385,-609.5 385,-609.5 385,-451.36 385,-451.36 385,-451.36 410.2,-451.36 410.2,-451.36"/>
<polygon fill="none" stroke="black" points="410.2,-454.86 420.2,-451.36 410.2,-447.86 410.2,-454.86"/>
</g>
<!-- SSC_GLOSSARY -->
<g id="node14" class="node">
<title>SSC_GLOSSARY</title>
<path fill="none" stroke="black" d="M840,-870.5C840,-870.5 746.75,-870.5 746.75,-870.5 740.75,-870.5 734.75,-864.5 734.75,-858.5 734.75,-858.5 734.75,-846.5 734.75,-846.5 734.75,-840.5 740.75,-834.5 746.75,-834.5 746.75,-834.5 840,-834.5 840,-834.5 846,-834.5 852,-840.5 852,-846.5 852,-846.5 852,-858.5 852,-858.5 852,-864.5 846,-870.5 840,-870.5"/>
<text xml:space="preserve" text-anchor="middle" x="793.38" y="-847.45" font-family="Times New Roman,serif" font-size="14.00">SSC_GLOSSARY</text>
</g>
<!-- SSC_UNLOCK_SECTION&#45;&gt;SSC_GLOSSARY -->
<g id="edge13" class="edge">
<title>SSC_UNLOCK_SECTION&#45;&gt;SSC_GLOSSARY</title>
<path fill="none" stroke="black" d="M211.35,-627.5C378.79,-627.5 739,-627.5 739,-627.5 739,-627.5 739,-822.57 739,-822.57"/>
<polygon fill="none" stroke="black" points="735.5,-822.57 739,-832.57 742.5,-822.57 735.5,-822.57"/>
</g>
<!-- SSC_WORKFLOW_SECTION -->
<g id="node15" class="node">
<title>SSC_WORKFLOW_SECTION</title>
<path fill="none" stroke="black" d="M211.38,-492.5C211.38,-492.5 43.88,-492.5 43.88,-492.5 37.88,-492.5 31.88,-486.5 31.88,-480.5 31.88,-480.5 31.88,-468.5 31.88,-468.5 31.88,-462.5 37.88,-456.5 43.88,-456.5 43.88,-456.5 211.38,-456.5 211.38,-456.5 217.38,-456.5 223.38,-462.5 223.38,-468.5 223.38,-468.5 223.38,-480.5 223.38,-480.5 223.38,-486.5 217.38,-492.5 211.38,-492.5"/>
<text xml:space="preserve" text-anchor="middle" x="127.62" y="-469.45" font-family="Times New Roman,serif" font-size="14.00">SSC_WORKFLOW_SECTION</text>
</g>
<!-- SSC_WORKFLOW_SECTION&#45;&gt;SSC_SECTION -->
<g id="edge14" class="edge">
<title>SSC_WORKFLOW_SECTION&#45;&gt;SSC_SECTION</title>
<path fill="none" stroke="black" d="M223.78,-474.5C321,-474.5 457,-474.5 457,-474.5 457,-474.5 457,-468.44 457,-468.44"/>
<polygon fill="none" stroke="black" points="460.5,-468.44 457,-458.44 453.5,-468.44 460.5,-468.44"/>
</g>
<!-- SSC_ANALYTICS_MIDDLEWARE -->
<g id="node16" class="node">
<title>SSC_ANALYTICS_MIDDLEWARE</title>
<path fill="none" stroke="black" d="M572.75,-168.5C572.75,-168.5 375.25,-168.5 375.25,-168.5 369.25,-168.5 363.25,-162.5 363.25,-156.5 363.25,-156.5 363.25,-144.5 363.25,-144.5 363.25,-138.5 369.25,-132.5 375.25,-132.5 375.25,-132.5 572.75,-132.5 572.75,-132.5 578.75,-132.5 584.75,-138.5 584.75,-144.5 584.75,-144.5 584.75,-156.5 584.75,-156.5 584.75,-162.5 578.75,-168.5 572.75,-168.5"/>
<text xml:space="preserve" text-anchor="middle" x="474" y="-145.45" font-family="Times New Roman,serif" font-size="14.00">SSC_ANALYTICS_MIDDLEWARE</text>
</g>
<!-- SSC_ANALYTICS_MIDDLEWARE&#45;&gt;SSC_LOGGER -->
<g id="edge16" class="edge">
<title>SSC_ANALYTICS_MIDDLEWARE&#45;&gt;SSC_LOGGER</title>
<path fill="none" stroke="black" d="M580,-168.71C580,-218.93 580,-355.7 580,-355.7 580,-355.7 730.75,-355.7 730.75,-355.7"/>
<polygon fill="none" stroke="black" points="730.75,-359.2 740.75,-355.7 730.75,-352.2 730.75,-359.2"/>
</g>
<!-- SIMPLE_WEB_MIDDLEWARE -->
<g id="node17" class="node">
<title>SIMPLE_WEB_MIDDLEWARE</title>
<path fill="none" stroke="black" d="M882,-168.5C882,-168.5 704.75,-168.5 704.75,-168.5 698.75,-168.5 692.75,-162.5 692.75,-156.5 692.75,-156.5 692.75,-144.5 692.75,-144.5 692.75,-138.5 698.75,-132.5 704.75,-132.5 704.75,-132.5 882,-132.5 882,-132.5 888,-132.5 894,-138.5 894,-144.5 894,-144.5 894,-156.5 894,-156.5 894,-162.5 888,-168.5 882,-168.5"/>
<text xml:space="preserve" text-anchor="middle" x="793.38" y="-145.45" font-family="Times New Roman,serif" font-size="14.00">SIMPLE_WEB_MIDDLEWARE</text>
</g>
<!-- SSC_ANALYTICS_MIDDLEWARE&#45;&gt;SIMPLE_WEB_MIDDLEWARE -->
<g id="edge15" class="edge">
<title>SSC_ANALYTICS_MIDDLEWARE&#45;&gt;SIMPLE_WEB_MIDDLEWARE</title>
<path fill="none" stroke="black" d="M584.81,-150.5C584.81,-150.5 680.88,-150.5 680.88,-150.5"/>
<polygon fill="none" stroke="black" points="680.88,-154 690.88,-150.5 680.88,-147 680.88,-154"/>
</g>
<!-- SSC_CONFIG -->
<g id="node18" class="node">
<title>SSC_CONFIG</title>
<path fill="none" stroke="black" d="M510.5,-384.5C510.5,-384.5 437.5,-384.5 437.5,-384.5 431.5,-384.5 425.5,-378.5 425.5,-372.5 425.5,-372.5 425.5,-360.5 425.5,-360.5 425.5,-354.5 431.5,-348.5 437.5,-348.5 437.5,-348.5 510.5,-348.5 510.5,-348.5 516.5,-348.5 522.5,-354.5 522.5,-360.5 522.5,-360.5 522.5,-372.5 522.5,-372.5 522.5,-378.5 516.5,-384.5 510.5,-384.5"/>
<text xml:space="preserve" text-anchor="middle" x="474" y="-361.45" font-family="Times New Roman,serif" font-size="14.00">SSC_CONFIG</text>
</g>
<!-- SSC_CONFIG&#45;&gt;SSC_LOGGER -->
<g id="edge17" class="edge">
<title>SSC_CONFIG&#45;&gt;SSC_LOGGER</title>
<path fill="none" stroke="black" d="M522.85,-362.9C522.85,-362.9 730.63,-362.9 730.63,-362.9"/>
<polygon fill="none" stroke="black" points="730.63,-366.4 740.63,-362.9 730.63,-359.4 730.63,-366.4"/>
</g>
<!-- SSC_DATABASE -->
<g id="node19" class="node">
<title>SSC_DATABASE</title>
<path fill="none" stroke="black" d="M520.25,-312.5C520.25,-312.5 427.75,-312.5 427.75,-312.5 421.75,-312.5 415.75,-306.5 415.75,-300.5 415.75,-300.5 415.75,-288.5 415.75,-288.5 415.75,-282.5 421.75,-276.5 427.75,-276.5 427.75,-276.5 520.25,-276.5 520.25,-276.5 526.25,-276.5 532.25,-282.5 532.25,-288.5 532.25,-288.5 532.25,-300.5 532.25,-300.5 532.25,-306.5 526.25,-312.5 520.25,-312.5"/>
<text xml:space="preserve" text-anchor="middle" x="474" y="-289.45" font-family="Times New Roman,serif" font-size="14.00">SSC_DATABASE</text>
</g>
<!-- SSC_DATABASE&#45;&gt;SSC_LOGGER -->
<g id="edge18" class="edge">
<title>SSC_DATABASE&#45;&gt;SSC_LOGGER</title>
<path fill="none" stroke="black" d="M532.59,-294.5C620.41,-294.5 776,-294.5 776,-294.5 776,-294.5 776,-336.82 776,-336.82"/>
<polygon fill="none" stroke="black" points="772.5,-336.82 776,-346.82 779.5,-336.82 772.5,-336.82"/>
</g>
<!-- SSC_PAGE -->
<g id="node20" class="node">
<title>SSC_PAGE</title>
<path fill="none" stroke="black" d="M502.62,-1032.5C502.62,-1032.5 445.38,-1032.5 445.38,-1032.5 439.38,-1032.5 433.38,-1026.5 433.38,-1020.5 433.38,-1020.5 433.38,-1008.5 433.38,-1008.5 433.38,-1002.5 439.38,-996.5 445.38,-996.5 445.38,-996.5 502.62,-996.5 502.62,-996.5 508.62,-996.5 514.62,-1002.5 514.62,-1008.5 514.62,-1008.5 514.62,-1020.5 514.62,-1020.5 514.62,-1026.5 508.62,-1032.5 502.62,-1032.5"/>
<text xml:space="preserve" text-anchor="middle" x="474" y="-1009.45" font-family="Times New Roman,serif" font-size="14.00">SSC_PAGE</text>
</g>
<!-- SSC_PAGE&#45;&gt;SSC_SHARED -->
<g id="edge19" class="edge">
<title>SSC_PAGE&#45;&gt;SSC_SHARED</title>
<path fill="none" stroke="black" d="M514.86,-1014.5C597.57,-1014.5 777,-1014.5 777,-1014.5 777,-1014.5 777,-972.18 777,-972.18"/>
<polygon fill="none" stroke="black" points="780.5,-972.18 777,-962.18 773.5,-972.18 780.5,-972.18"/>
</g>
<!-- SSC_SERVER -->
<g id="node21" class="node">
<title>SSC_SERVER</title>
<path fill="none" stroke="black" d="M510.88,-240.5C510.88,-240.5 437.12,-240.5 437.12,-240.5 431.12,-240.5 425.12,-234.5 425.12,-228.5 425.12,-228.5 425.12,-216.5 425.12,-216.5 425.12,-210.5 431.12,-204.5 437.12,-204.5 437.12,-204.5 510.88,-204.5 510.88,-204.5 516.88,-204.5 522.88,-210.5 522.88,-216.5 522.88,-216.5 522.88,-228.5 522.88,-228.5 522.88,-234.5 516.88,-240.5 510.88,-240.5"/>
<text xml:space="preserve" text-anchor="middle" x="474" y="-217.45" font-family="Times New Roman,serif" font-size="14.00">SSC_SERVER</text>
</g>
<!-- SSC_SERVER&#45;&gt;SSC_LOGGER -->
<g id="edge20" class="edge">
<title>SSC_SERVER&#45;&gt;SSC_LOGGER</title>
<path fill="none" stroke="black" d="M523.22,-222.5C616.54,-222.5 810,-222.5 810,-222.5 810,-222.5 810,-336.75 810,-336.75"/>
<polygon fill="none" stroke="black" points="806.5,-336.75 810,-346.75 813.5,-336.75 806.5,-336.75"/>
</g>
<!-- SSC_SITE_GENERATOR -->
<g id="node22" class="node">
<title>SSC_SITE_GENERATOR</title>
<path fill="none" stroke="black" d="M543.12,-618.5C543.12,-618.5 404.88,-618.5 404.88,-618.5 398.88,-618.5 392.88,-612.5 392.88,-606.5 392.88,-606.5 392.88,-594.5 392.88,-594.5 392.88,-588.5 398.88,-582.5 404.88,-582.5 404.88,-582.5 543.12,-582.5 543.12,-582.5 549.12,-582.5 555.12,-588.5 555.12,-594.5 555.12,-594.5 555.12,-606.5 555.12,-606.5 555.12,-612.5 549.12,-618.5 543.12,-618.5"/>
<text xml:space="preserve" text-anchor="middle" x="474" y="-595.45" font-family="Times New Roman,serif" font-size="14.00">SSC_SITE_GENERATOR</text>
</g>
<!-- SSC_SITE_GENERATOR&#45;&gt;SSC_SHARED -->
<g id="edge22" class="edge">
<title>SSC_SITE_GENERATOR&#45;&gt;SSC_SHARED</title>
<path fill="none" stroke="black" d="M555.42,-600.5C564.19,-600.5 570,-600.5 570,-600.5 570,-600.5 570,-934.79 570,-934.79 570,-934.79 731.17,-934.79 731.17,-934.79"/>
<polygon fill="none" stroke="black" points="731.17,-938.29 741.17,-934.79 731.17,-931.29 731.17,-938.29"/>
</g>
<!-- SSC_SITE_GENERATOR&#45;&gt;SSC_LOGGER -->
<g id="edge21" class="edge">
<title>SSC_SITE_GENERATOR&#45;&gt;SSC_LOGGER</title>
<path fill="none" stroke="black" d="M544,-582.03C544,-527.36 544,-370.1 544,-370.1 544,-370.1 730.79,-370.1 730.79,-370.1"/>
<polygon fill="none" stroke="black" points="730.79,-373.6 740.79,-370.1 730.79,-366.6 730.79,-373.6"/>
</g>
<!-- SSC_SUB_PAGE -->
<g id="node23" class="node">
<title>SSC_SUB_PAGE</title>
<path fill="none" stroke="black" d="M519.12,-960.5C519.12,-960.5 428.88,-960.5 428.88,-960.5 422.88,-960.5 416.88,-954.5 416.88,-948.5 416.88,-948.5 416.88,-936.5 416.88,-936.5 416.88,-930.5 422.88,-924.5 428.88,-924.5 428.88,-924.5 519.12,-924.5 519.12,-924.5 525.12,-924.5 531.12,-930.5 531.12,-936.5 531.12,-936.5 531.12,-948.5 531.12,-948.5 531.12,-954.5 525.12,-960.5 519.12,-960.5"/>
<text xml:space="preserve" text-anchor="middle" x="474" y="-937.45" font-family="Times New Roman,serif" font-size="14.00">SSC_SUB_PAGE</text>
</g>
<!-- SSC_SUB_PAGE&#45;&gt;SSC_SHARED -->
<g id="edge23" class="edge">
<title>SSC_SUB_PAGE&#45;&gt;SSC_SHARED</title>
<path fill="none" stroke="black" d="M531.47,-950.21C531.47,-950.21 731.17,-950.21 731.17,-950.21"/>
<polygon fill="none" stroke="black" points="731.17,-953.71 741.17,-950.21 731.17,-946.71 731.17,-953.71"/>
</g>
<!-- SSC_SUB_PAGE&#45;&gt;SSC_GLOSSARY -->
<g id="edge24" class="edge">
<title>SSC_SUB_PAGE&#45;&gt;SSC_GLOSSARY</title>
<path fill="none" stroke="black" d="M531.5,-939.93C609.44,-939.93 739,-939.93 739,-939.93 739,-939.93 739,-882.13 739,-882.13"/>
<polygon fill="none" stroke="black" points="742.5,-882.13 739,-872.13 735.5,-882.13 742.5,-882.13"/>
</g>
<!-- SSC_AI_CHANGES_PAGE -->
<g id="node24" class="node">
<title>SSC_AI_CHANGES_PAGE</title>
<path fill="none" stroke="black" d="M202,-1284.5C202,-1284.5 53.25,-1284.5 53.25,-1284.5 47.25,-1284.5 41.25,-1278.5 41.25,-1272.5 41.25,-1272.5 41.25,-1260.5 41.25,-1260.5 41.25,-1254.5 47.25,-1248.5 53.25,-1248.5 53.25,-1248.5 202,-1248.5 202,-1248.5 208,-1248.5 214,-1254.5 214,-1260.5 214,-1260.5 214,-1272.5 214,-1272.5 214,-1278.5 208,-1284.5 202,-1284.5"/>
<text xml:space="preserve" text-anchor="middle" x="127.62" y="-1261.45" font-family="Times New Roman,serif" font-size="14.00">SSC_AI_CHANGES_PAGE</text>
</g>
<!-- SSC_AI_CHANGES_PAGE&#45;&gt;SSC_SUB_PAGE -->
<g id="edge25" class="edge">
<title>SSC_AI_CHANGES_PAGE&#45;&gt;SSC_SUB_PAGE</title>
<path fill="none" stroke="black" d="M214.28,-1266.5C228.66,-1266.5 239,-1266.5 239,-1266.5 239,-1266.5 239,-948.5 239,-948.5 239,-948.5 405,-948.5 405,-948.5"/>
<polygon fill="none" stroke="black" points="405,-952 415,-948.5 405,-945 405,-952"/>
</g>
<!-- SSC_ANALYSIS_PAGE -->
<g id="node25" class="node">
<title>SSC_ANALYSIS_PAGE</title>
<path fill="none" stroke="black" d="M192.62,-1212.5C192.62,-1212.5 62.62,-1212.5 62.62,-1212.5 56.62,-1212.5 50.62,-1206.5 50.62,-1200.5 50.62,-1200.5 50.62,-1188.5 50.62,-1188.5 50.62,-1182.5 56.62,-1176.5 62.62,-1176.5 62.62,-1176.5 192.62,-1176.5 192.62,-1176.5 198.62,-1176.5 204.62,-1182.5 204.62,-1188.5 204.62,-1188.5 204.62,-1200.5 204.62,-1200.5 204.62,-1206.5 198.62,-1212.5 192.62,-1212.5"/>
<text xml:space="preserve" text-anchor="middle" x="127.62" y="-1189.45" font-family="Times New Roman,serif" font-size="14.00">SSC_ANALYSIS_PAGE</text>
</g>
<!-- SSC_ANALYSIS_PAGE&#45;&gt;SSC_SUB_PAGE -->
<g id="edge26" class="edge">
<title>SSC_ANALYSIS_PAGE&#45;&gt;SSC_SUB_PAGE</title>
<path fill="none" stroke="black" d="M205.07,-1194.5C223.03,-1194.5 237,-1194.5 237,-1194.5 237,-1194.5 237,-945.5 237,-945.5 237,-945.5 405.12,-945.5 405.12,-945.5"/>
<polygon fill="none" stroke="black" points="405.12,-949 415.12,-945.5 405.12,-942 405.12,-949"/>
</g>
<!-- SSC_BUSINESS_CASE_PAGE -->
<g id="node26" class="node">
<title>SSC_BUSINESS_CASE_PAGE</title>
<path fill="none" stroke="black" d="M212.12,-1140.5C212.12,-1140.5 43.12,-1140.5 43.12,-1140.5 37.12,-1140.5 31.12,-1134.5 31.12,-1128.5 31.12,-1128.5 31.12,-1116.5 31.12,-1116.5 31.12,-1110.5 37.12,-1104.5 43.12,-1104.5 43.12,-1104.5 212.12,-1104.5 212.12,-1104.5 218.12,-1104.5 224.12,-1110.5 224.12,-1116.5 224.12,-1116.5 224.12,-1128.5 224.12,-1128.5 224.12,-1134.5 218.12,-1140.5 212.12,-1140.5"/>
<text xml:space="preserve" text-anchor="middle" x="127.62" y="-1117.45" font-family="Times New Roman,serif" font-size="14.00">SSC_BUSINESS_CASE_PAGE</text>
</g>
<!-- SSC_BUSINESS_CASE_PAGE&#45;&gt;SSC_SUB_PAGE -->
<g id="edge27" class="edge">
<title>SSC_BUSINESS_CASE_PAGE&#45;&gt;SSC_SUB_PAGE</title>
<path fill="none" stroke="black" d="M213,-1104.25C213,-1058.49 213,-942.5 213,-942.5 213,-942.5 404.89,-942.5 404.89,-942.5"/>
<polygon fill="none" stroke="black" points="404.89,-946 414.89,-942.5 404.89,-939 404.89,-946"/>
</g>
<!-- SSC_CONTACT_PAGE -->
<g id="node27" class="node">
<title>SSC_CONTACT_PAGE</title>
<path fill="none" stroke="black" d="M191.12,-1068.5C191.12,-1068.5 64.12,-1068.5 64.12,-1068.5 58.12,-1068.5 52.12,-1062.5 52.12,-1056.5 52.12,-1056.5 52.12,-1044.5 52.12,-1044.5 52.12,-1038.5 58.12,-1032.5 64.12,-1032.5 64.12,-1032.5 191.12,-1032.5 191.12,-1032.5 197.12,-1032.5 203.12,-1038.5 203.12,-1044.5 203.12,-1044.5 203.12,-1056.5 203.12,-1056.5 203.12,-1062.5 197.12,-1068.5 191.12,-1068.5"/>
<text xml:space="preserve" text-anchor="middle" x="127.62" y="-1045.45" font-family="Times New Roman,serif" font-size="14.00">SSC_CONTACT_PAGE</text>
</g>
<!-- SSC_CONTACT_PAGE&#45;&gt;SSC_SUB_PAGE -->
<g id="edge28" class="edge">
<title>SSC_CONTACT_PAGE&#45;&gt;SSC_SUB_PAGE</title>
<path fill="none" stroke="black" d="M194,-1032.17C194,-1000.64 194,-939.5 194,-939.5 194,-939.5 405.15,-939.5 405.15,-939.5"/>
<polygon fill="none" stroke="black" points="405.15,-943 415.15,-939.5 405.15,-936 405.15,-943"/>
</g>
<!-- SSC_DBC_PAGE -->
<g id="node28" class="node">
<title>SSC_DBC_PAGE</title>
<path fill="none" stroke="black" d="M173.5,-996.5C173.5,-996.5 81.75,-996.5 81.75,-996.5 75.75,-996.5 69.75,-990.5 69.75,-984.5 69.75,-984.5 69.75,-972.5 69.75,-972.5 69.75,-966.5 75.75,-960.5 81.75,-960.5 81.75,-960.5 173.5,-960.5 173.5,-960.5 179.5,-960.5 185.5,-966.5 185.5,-972.5 185.5,-972.5 185.5,-984.5 185.5,-984.5 185.5,-990.5 179.5,-996.5 173.5,-996.5"/>
<text xml:space="preserve" text-anchor="middle" x="127.62" y="-973.45" font-family="Times New Roman,serif" font-size="14.00">SSC_DBC_PAGE</text>
</g>
<!-- SSC_DBC_PAGE&#45;&gt;SSC_SUB_PAGE -->
<g id="edge29" class="edge">
<title>SSC_DBC_PAGE&#45;&gt;SSC_SUB_PAGE</title>
<path fill="none" stroke="black" d="M185.67,-978.5C272.21,-978.5 425,-978.5 425,-978.5 425,-978.5 425,-972.44 425,-972.44"/>
<polygon fill="none" stroke="black" points="428.5,-972.44 425,-962.44 421.5,-972.44 428.5,-972.44"/>
</g>
<!-- SSC_FULL_REPORT_PAGE -->
<g id="node29" class="node">
<title>SSC_FULL_REPORT_PAGE</title>
<path fill="none" stroke="black" d="M205.38,-924.5C205.38,-924.5 49.88,-924.5 49.88,-924.5 43.88,-924.5 37.88,-918.5 37.88,-912.5 37.88,-912.5 37.88,-900.5 37.88,-900.5 37.88,-894.5 43.88,-888.5 49.88,-888.5 49.88,-888.5 205.38,-888.5 205.38,-888.5 211.38,-888.5 217.38,-894.5 217.38,-900.5 217.38,-900.5 217.38,-912.5 217.38,-912.5 217.38,-918.5 211.38,-924.5 205.38,-924.5"/>
<text xml:space="preserve" text-anchor="middle" x="127.62" y="-901.45" font-family="Times New Roman,serif" font-size="14.00">SSC_FULL_REPORT_PAGE</text>
</g>
<!-- SSC_FULL_REPORT_PAGE&#45;&gt;SSC_SUB_PAGE -->
<g id="edge30" class="edge">
<title>SSC_FULL_REPORT_PAGE&#45;&gt;SSC_SUB_PAGE</title>
<path fill="none" stroke="black" d="M208,-924.99C208,-931.16 208,-936.5 208,-936.5 208,-936.5 405.1,-936.5 405.1,-936.5"/>
<polygon fill="none" stroke="black" points="405.1,-940 415.1,-936.5 405.1,-933 405.1,-940"/>
</g>
<!-- SSC_GET_STARTED_PAGE -->
<g id="node30" class="node">
<title>SSC_GET_STARTED_PAGE</title>
<path fill="none" stroke="black" d="M205.75,-852.5C205.75,-852.5 49.5,-852.5 49.5,-852.5 43.5,-852.5 37.5,-846.5 37.5,-840.5 37.5,-840.5 37.5,-828.5 37.5,-828.5 37.5,-822.5 43.5,-816.5 49.5,-816.5 49.5,-816.5 205.75,-816.5 205.75,-816.5 211.75,-816.5 217.75,-822.5 217.75,-828.5 217.75,-828.5 217.75,-840.5 217.75,-840.5 217.75,-846.5 211.75,-852.5 205.75,-852.5"/>
<text xml:space="preserve" text-anchor="middle" x="127.62" y="-829.45" font-family="Times New Roman,serif" font-size="14.00">SSC_GET_STARTED_PAGE</text>
</g>
<!-- SSC_GET_STARTED_PAGE&#45;&gt;SSC_SUB_PAGE -->
<g id="edge31" class="edge">
<title>SSC_GET_STARTED_PAGE&#45;&gt;SSC_SUB_PAGE</title>
<path fill="none" stroke="black" d="M217.9,-843.5C294.14,-843.5 391,-843.5 391,-843.5 391,-843.5 391,-927.5 391,-927.5 391,-927.5 405.29,-927.5 405.29,-927.5"/>
<polygon fill="none" stroke="black" points="405.29,-931 415.29,-927.5 405.29,-924 405.29,-931"/>
</g>
<!-- SSC_LANDING_PAGE -->
<g id="node31" class="node">
<title>SSC_LANDING_PAGE</title>
<path fill="none" stroke="black" d="M536.75,-870.5C536.75,-870.5 411.25,-870.5 411.25,-870.5 405.25,-870.5 399.25,-864.5 399.25,-858.5 399.25,-858.5 399.25,-846.5 399.25,-846.5 399.25,-840.5 405.25,-834.5 411.25,-834.5 411.25,-834.5 536.75,-834.5 536.75,-834.5 542.75,-834.5 548.75,-840.5 548.75,-846.5 548.75,-846.5 548.75,-858.5 548.75,-858.5 548.75,-864.5 542.75,-870.5 536.75,-870.5"/>
<text xml:space="preserve" text-anchor="middle" x="474" y="-847.45" font-family="Times New Roman,serif" font-size="14.00">SSC_LANDING_PAGE</text>
</g>
<!-- SSC_LANDING_PAGE&#45;&gt;SSC_SHARED -->
<g id="edge32" class="edge">
<title>SSC_LANDING_PAGE&#45;&gt;SSC_SHARED</title>
<path fill="none" stroke="black" d="M541,-870.79C541,-897.77 541,-945.07 541,-945.07 541,-945.07 731.09,-945.07 731.09,-945.07"/>
<polygon fill="none" stroke="black" points="731.09,-948.57 741.09,-945.07 731.09,-941.57 731.09,-948.57"/>
</g>
<!-- SSC_LANDING_PAGE&#45;&gt;SSC_LOGGER -->
<g id="edge33" class="edge">
<title>SSC_LANDING_PAGE&#45;&gt;SSC_LOGGER</title>
<path fill="none" stroke="black" d="M549.11,-846.5C555.74,-846.5 560,-846.5 560,-846.5 560,-846.5 560,-377.3 560,-377.3 560,-377.3 730.65,-377.3 730.65,-377.3"/>
<polygon fill="none" stroke="black" points="730.65,-380.8 740.65,-377.3 730.65,-373.8 730.65,-380.8"/>
</g>
<!-- SSC_LANDING_PAGE&#45;&gt;SSC_GLOSSARY -->
<g id="edge34" class="edge">
<title>SSC_LANDING_PAGE&#45;&gt;SSC_GLOSSARY</title>
<path fill="none" stroke="black" d="M548.88,-858.5C548.88,-858.5 722.88,-858.5 722.88,-858.5"/>
<polygon fill="none" stroke="black" points="722.88,-862 732.88,-858.5 722.88,-855 722.88,-862"/>
</g>
<!-- SSC_OLD_WAY_PAGE -->
<g id="node32" class="node">
<title>SSC_OLD_WAY_PAGE</title>
<path fill="none" stroke="black" d="M192.25,-780.5C192.25,-780.5 63,-780.5 63,-780.5 57,-780.5 51,-774.5 51,-768.5 51,-768.5 51,-756.5 51,-756.5 51,-750.5 57,-744.5 63,-744.5 63,-744.5 192.25,-744.5 192.25,-744.5 198.25,-744.5 204.25,-750.5 204.25,-756.5 204.25,-756.5 204.25,-768.5 204.25,-768.5 204.25,-774.5 198.25,-780.5 192.25,-780.5"/>
<text xml:space="preserve" text-anchor="middle" x="127.62" y="-757.45" font-family="Times New Roman,serif" font-size="14.00">SSC_OLD_WAY_PAGE</text>
</g>
<!-- SSC_OLD_WAY_PAGE&#45;&gt;SSC_SUB_PAGE -->
<g id="edge35" class="edge">
<title>SSC_OLD_WAY_PAGE&#45;&gt;SSC_SUB_PAGE</title>
<path fill="none" stroke="black" d="M204.43,-762.5C229.02,-762.5 250,-762.5 250,-762.5 250,-762.5 250,-933.5 250,-933.5 250,-933.5 405.09,-933.5 405.09,-933.5"/>
<polygon fill="none" stroke="black" points="405.09,-937 415.09,-933.5 405.09,-930 405.09,-937"/>
</g>
<!-- SSC_PORTFOLIO_PAGE -->
<g id="node33" class="node">
<title>SSC_PORTFOLIO_PAGE</title>
<path fill="none" stroke="black" d="M196.38,-708.5C196.38,-708.5 58.88,-708.5 58.88,-708.5 52.88,-708.5 46.88,-702.5 46.88,-696.5 46.88,-696.5 46.88,-684.5 46.88,-684.5 46.88,-678.5 52.88,-672.5 58.88,-672.5 58.88,-672.5 196.38,-672.5 196.38,-672.5 202.38,-672.5 208.38,-678.5 208.38,-684.5 208.38,-684.5 208.38,-696.5 208.38,-696.5 208.38,-702.5 202.38,-708.5 196.38,-708.5"/>
<text xml:space="preserve" text-anchor="middle" x="127.62" y="-685.45" font-family="Times New Roman,serif" font-size="14.00">SSC_PORTFOLIO_PAGE</text>
</g>
<!-- SSC_PORTFOLIO_PAGE&#45;&gt;SSC_SUB_PAGE -->
<g id="edge36" class="edge">
<title>SSC_PORTFOLIO_PAGE&#45;&gt;SSC_SUB_PAGE</title>
<path fill="none" stroke="black" d="M208.8,-690.5C232.9,-690.5 253,-690.5 253,-690.5 253,-690.5 253,-930.5 253,-930.5 253,-930.5 405,-930.5 405,-930.5"/>
<polygon fill="none" stroke="black" points="405,-934 415,-930.5 405,-927 405,-934"/>
</g>
<!-- SSC_PROBABLE_PAGE -->
<g id="node34" class="node">
<title>SSC_PROBABLE_PAGE</title>
<path fill="none" stroke="black" d="M194.88,-1500.5C194.88,-1500.5 60.38,-1500.5 60.38,-1500.5 54.38,-1500.5 48.38,-1494.5 48.38,-1488.5 48.38,-1488.5 48.38,-1476.5 48.38,-1476.5 48.38,-1470.5 54.38,-1464.5 60.38,-1464.5 60.38,-1464.5 194.88,-1464.5 194.88,-1464.5 200.88,-1464.5 206.88,-1470.5 206.88,-1476.5 206.88,-1476.5 206.88,-1488.5 206.88,-1488.5 206.88,-1494.5 200.88,-1500.5 194.88,-1500.5"/>
<text xml:space="preserve" text-anchor="middle" x="127.62" y="-1477.45" font-family="Times New Roman,serif" font-size="14.00">SSC_PROBABLE_PAGE</text>
</g>
<!-- SSC_PROBABLE_PAGE&#45;&gt;SSC_SUB_PAGE -->
<g id="edge37" class="edge">
<title>SSC_PROBABLE_PAGE&#45;&gt;SSC_SUB_PAGE</title>
<path fill="none" stroke="black" d="M207.25,-1482.5C229.15,-1482.5 247,-1482.5 247,-1482.5 247,-1482.5 247,-957.5 247,-957.5 247,-957.5 404.91,-957.5 404.91,-957.5"/>
<polygon fill="none" stroke="black" points="404.91,-961 414.91,-957.5 404.91,-954 404.91,-961"/>
</g>
<!-- SSC_WHY_EIFFEL_PAGE -->
<g id="node35" class="node">
<title>SSC_WHY_EIFFEL_PAGE</title>
<path fill="none" stroke="black" d="M201.62,-1428.5C201.62,-1428.5 53.62,-1428.5 53.62,-1428.5 47.62,-1428.5 41.62,-1422.5 41.62,-1416.5 41.62,-1416.5 41.62,-1404.5 41.62,-1404.5 41.62,-1398.5 47.62,-1392.5 53.62,-1392.5 53.62,-1392.5 201.62,-1392.5 201.62,-1392.5 207.62,-1392.5 213.62,-1398.5 213.62,-1404.5 213.62,-1404.5 213.62,-1416.5 213.62,-1416.5 213.62,-1422.5 207.62,-1428.5 201.62,-1428.5"/>
<text xml:space="preserve" text-anchor="middle" x="127.62" y="-1405.45" font-family="Times New Roman,serif" font-size="14.00">SSC_WHY_EIFFEL_PAGE</text>
</g>
<!-- SSC_WHY_EIFFEL_PAGE&#45;&gt;SSC_SUB_PAGE -->
<g id="edge38" class="edge">
<title>SSC_WHY_EIFFEL_PAGE&#45;&gt;SSC_SUB_PAGE</title>
<path fill="none" stroke="black" d="M213.85,-1410.5C231.6,-1410.5 245,-1410.5 245,-1410.5 245,-1410.5 245,-954.5 245,-954.5 245,-954.5 405,-954.5 405,-954.5"/>
<polygon fill="none" stroke="black" points="405,-958 415,-954.5 405,-951 405,-958"/>
</g>
<!-- SSC_WORKFLOW_PAGE -->
<g id="node36" class="node">
<title>SSC_WORKFLOW_PAGE</title>
<path fill="none" stroke="black" d="M200.12,-1356.5C200.12,-1356.5 55.12,-1356.5 55.12,-1356.5 49.12,-1356.5 43.12,-1350.5 43.12,-1344.5 43.12,-1344.5 43.12,-1332.5 43.12,-1332.5 43.12,-1326.5 49.12,-1320.5 55.12,-1320.5 55.12,-1320.5 200.12,-1320.5 200.12,-1320.5 206.12,-1320.5 212.12,-1326.5 212.12,-1332.5 212.12,-1332.5 212.12,-1344.5 212.12,-1344.5 212.12,-1350.5 206.12,-1356.5 200.12,-1356.5"/>
<text xml:space="preserve" text-anchor="middle" x="127.62" y="-1333.45" font-family="Times New Roman,serif" font-size="14.00">SSC_WORKFLOW_PAGE</text>
</g>
<!-- SSC_WORKFLOW_PAGE&#45;&gt;SSC_SUB_PAGE -->
<g id="edge39" class="edge">
<title>SSC_WORKFLOW_PAGE&#45;&gt;SSC_SUB_PAGE</title>
<path fill="none" stroke="black" d="M212.55,-1338.5C229.39,-1338.5 242,-1338.5 242,-1338.5 242,-1338.5 242,-951.5 242,-951.5 242,-951.5 405.14,-951.5 405.14,-951.5"/>
<polygon fill="none" stroke="black" points="405.14,-955 415.14,-951.5 405.14,-948 405.14,-955"/>
</g>
<!-- LIB_TESTS -->
<g id="node37" class="node">
<title>LIB_TESTS</title>
<path fill="none" stroke="black" d="M157.75,-1788.5C157.75,-1788.5 97.5,-1788.5 97.5,-1788.5 91.5,-1788.5 85.5,-1782.5 85.5,-1776.5 85.5,-1776.5 85.5,-1764.5 85.5,-1764.5 85.5,-1758.5 91.5,-1752.5 97.5,-1752.5 97.5,-1752.5 157.75,-1752.5 157.75,-1752.5 163.75,-1752.5 169.75,-1758.5 169.75,-1764.5 169.75,-1764.5 169.75,-1776.5 169.75,-1776.5 169.75,-1782.5 163.75,-1788.5 157.75,-1788.5"/>
<text xml:space="preserve" text-anchor="middle" x="127.62" y="-1765.45" font-family="Times New Roman,serif" font-size="14.00">LIB_TESTS</text>
</g>
<!-- TEST_SET_BASE -->
<g id="node38" class="node">
<title>TEST_SET_BASE</title>
<path fill="none" stroke="black" d="M522.12,-1680.5C522.12,-1680.5 425.88,-1680.5 425.88,-1680.5 419.88,-1680.5 413.88,-1674.5 413.88,-1668.5 413.88,-1668.5 413.88,-1656.5 413.88,-1656.5 413.88,-1650.5 419.88,-1644.5 425.88,-1644.5 425.88,-1644.5 522.12,-1644.5 522.12,-1644.5 528.12,-1644.5 534.12,-1650.5 534.12,-1656.5 534.12,-1656.5 534.12,-1668.5 534.12,-1668.5 534.12,-1674.5 528.12,-1680.5 522.12,-1680.5"/>
<text xml:space="preserve" text-anchor="middle" x="474" y="-1657.45" font-family="Times New Roman,serif" font-size="14.00">TEST_SET_BASE</text>
</g>
<!-- LIB_TESTS&#45;&gt;TEST_SET_BASE -->
<g id="edge40" class="edge">
<title>LIB_TESTS&#45;&gt;TEST_SET_BASE</title>
<path fill="none" stroke="black" d="M170.01,-1770.5C266.45,-1770.5 494,-1770.5 494,-1770.5 494,-1770.5 494,-1692.33 494,-1692.33"/>
<polygon fill="none" stroke="black" points="497.5,-1692.33 494,-1682.33 490.5,-1692.33 497.5,-1692.33"/>
</g>
<!-- SSC_DATABASE_TEST_SET -->
<g id="node39" class="node">
<title>SSC_DATABASE_TEST_SET</title>
<path fill="none" stroke="black" d="M208.75,-1716.5C208.75,-1716.5 46.5,-1716.5 46.5,-1716.5 40.5,-1716.5 34.5,-1710.5 34.5,-1704.5 34.5,-1704.5 34.5,-1692.5 34.5,-1692.5 34.5,-1686.5 40.5,-1680.5 46.5,-1680.5 46.5,-1680.5 208.75,-1680.5 208.75,-1680.5 214.75,-1680.5 220.75,-1686.5 220.75,-1692.5 220.75,-1692.5 220.75,-1704.5 220.75,-1704.5 220.75,-1710.5 214.75,-1716.5 208.75,-1716.5"/>
<text xml:space="preserve" text-anchor="middle" x="127.62" y="-1693.45" font-family="Times New Roman,serif" font-size="14.00">SSC_DATABASE_TEST_SET</text>
</g>
<!-- SSC_DATABASE_TEST_SET&#45;&gt;TEST_SET_BASE -->
<g id="edge41" class="edge">
<title>SSC_DATABASE_TEST_SET&#45;&gt;TEST_SET_BASE</title>
<path fill="none" stroke="black" d="M221.15,-1698.5C317.59,-1698.5 454,-1698.5 454,-1698.5 454,-1698.5 454,-1692.44 454,-1692.44"/>
<polygon fill="none" stroke="black" points="457.5,-1692.44 454,-1682.44 450.5,-1692.44 457.5,-1692.44"/>
</g>
<!-- SSC_SERVER_VALIDATION_TEST_SET -->
<g id="node40" class="node">
<title>SSC_SERVER_VALIDATION_TEST_SET</title>
<path fill="none" stroke="black" d="M243.25,-1644.5C243.25,-1644.5 12,-1644.5 12,-1644.5 6,-1644.5 0,-1638.5 0,-1632.5 0,-1632.5 0,-1620.5 0,-1620.5 0,-1614.5 6,-1608.5 12,-1608.5 12,-1608.5 243.25,-1608.5 243.25,-1608.5 249.25,-1608.5 255.25,-1614.5 255.25,-1620.5 255.25,-1620.5 255.25,-1632.5 255.25,-1632.5 255.25,-1638.5 249.25,-1644.5 243.25,-1644.5"/>
<text xml:space="preserve" text-anchor="middle" x="127.62" y="-1621.45" font-family="Times New Roman,serif" font-size="14.00">SSC_SERVER_VALIDATION_TEST_SET</text>
</g>
<!-- SSC_SERVER_VALIDATION_TEST_SET&#45;&gt;TEST_SET_BASE -->
<g id="edge42" class="edge">
<title>SSC_SERVER_VALIDATION_TEST_SET&#45;&gt;TEST_SET_BASE</title>
<path fill="none" stroke="black" d="M238,-1644.92C238,-1653.78 238,-1662.5 238,-1662.5 238,-1662.5 402.02,-1662.5 402.02,-1662.5"/>
<polygon fill="none" stroke="black" points="402.02,-1666 412.02,-1662.5 402.02,-1659 402.02,-1666"/>
</g>
<!-- SSC_TEST_SET -->
<g id="node41" class="node">
<title>SSC_TEST_SET</title>
<path fill="none" stroke="black" d="M170.5,-1572.5C170.5,-1572.5 84.75,-1572.5 84.75,-1572.5 78.75,-1572.5 72.75,-1566.5 72.75,-1560.5 72.75,-1560.5 72.75,-1548.5 72.75,-1548.5 72.75,-1542.5 78.75,-1536.5 84.75,-1536.5 84.75,-1536.5 170.5,-1536.5 170.5,-1536.5 176.5,-1536.5 182.5,-1542.5 182.5,-1548.5 182.5,-1548.5 182.5,-1560.5 182.5,-1560.5 182.5,-1566.5 176.5,-1572.5 170.5,-1572.5"/>
<text xml:space="preserve" text-anchor="middle" x="127.62" y="-1549.45" font-family="Times New Roman,serif" font-size="14.00">SSC_TEST_SET</text>
</g>
<!-- SSC_TEST_SET&#45;&gt;TEST_SET_BASE -->
<g id="edge43" class="edge">
<title>SSC_TEST_SET&#45;&gt;TEST_SET_BASE</title>
<path fill="none" stroke="black" d="M182.89,-1554.5C280.68,-1554.5 474,-1554.5 474,-1554.5 474,-1554.5 474,-1632.67 474,-1632.67"/>
<polygon fill="none" stroke="black" points="470.5,-1632.67 474,-1642.67 477.5,-1632.67 470.5,-1632.67"/>
</g>
<!-- TEST_APP -->
<g id="node42" class="node">
<title>TEST_APP</title>
<path fill="none" stroke="black" d="M155.5,-1860.5C155.5,-1860.5 99.75,-1860.5 99.75,-1860.5 93.75,-1860.5 87.75,-1854.5 87.75,-1848.5 87.75,-1848.5 87.75,-1836.5 87.75,-1836.5 87.75,-1830.5 93.75,-1824.5 99.75,-1824.5 99.75,-1824.5 155.5,-1824.5 155.5,-1824.5 161.5,-1824.5 167.5,-1830.5 167.5,-1836.5 167.5,-1836.5 167.5,-1848.5 167.5,-1848.5 167.5,-1854.5 161.5,-1860.5 155.5,-1860.5"/>
<text xml:space="preserve" text-anchor="middle" x="127.62" y="-1837.45" font-family="Times New Roman,serif" font-size="14.00">TEST_APP</text>
</g>
</g>
</svg>
