<?xml version="1.0" encoding="UTF-8" standalone="no"?>
<!DOCTYPE svg PUBLIC "-//W3C//DTD SVG 1.1//EN"
 "http://www.w3.org/Graphics/SVG/1.1/DTD/svg11.dtd">
<!-- Generated by graphviz version 14.1.1 (20251213.1925)
 -->
<!-- Title: Dependencies Pages: 1 -->
<svg width="370pt" height="717pt"
 viewBox="0.00 0.00 370.00 717.00" xmlns="http://www.w3.org/2000/svg" xmlns:xlink="http://www.w3.org/1999/xlink">
<g id="graph0" class="graph" transform="scale(1 1) rotate(0) translate(4 712.5)">
<title>Dependencies</title>
<polygon fill="white" stroke="none" points="-4,4 -4,-712.5 366,-712.5 366,4 -4,4"/>
<text xml:space="preserve" text-anchor="middle" x="181" y="-7.2" font-family="Times New Roman,serif" font-size="14.00">simple_showcase &#45; Dependencies</text>
<!-- simple_showcase -->
<g id="node1" class="node">
<title>simple_showcase</title>
<polygon fill="lightblue" stroke="black" points="111.25,-384.5 0,-384.5 0,-348.5 111.25,-348.5 111.25,-384.5"/>
<text xml:space="preserve" text-anchor="middle" x="55.62" y="-361.45" font-family="Times New Roman,serif" font-size="14.00">simple_showcase</text>
</g>
<!-- simple_alpine -->
<g id="node2" class="node">
<title>simple_alpine</title>
<polygon fill="lightblue" stroke="black" points="354.88,-708.5 262.38,-708.5 262.38,-672.5 354.88,-672.5 354.88,-708.5"/>
<text xml:space="preserve" text-anchor="middle" x="308.62" y="-685.45" font-family="Times New Roman,serif" font-size="14.00">simple_alpine</text>
</g>
<!-- simple_showcase&#45;&gt;simple_alpine -->
<g id="edge1" class="edge">
<title>simple_showcase&#45;&gt;simple_alpine</title>
<path fill="none" stroke="black" stroke-dasharray="5,2" d="M28,-384.85C28,-453.39 28,-690.5 28,-690.5 28,-690.5 250.46,-690.5 250.46,-690.5"/>
<polygon fill="black" stroke="black" points="250.46,-694 260.46,-690.5 250.46,-687 250.46,-694"/>
</g>
<!-- simple_htmx -->
<g id="node3" class="node">
<title>simple_htmx</title>
<polygon fill="lightblue" stroke="black" points="352.62,-636.5 264.62,-636.5 264.62,-600.5 352.62,-600.5 352.62,-636.5"/>
<text xml:space="preserve" text-anchor="middle" x="308.62" y="-613.45" font-family="Times New Roman,serif" font-size="14.00">simple_htmx</text>
</g>
<!-- simple_showcase&#45;&gt;simple_htmx -->
<g id="edge2" class="edge">
<title>simple_showcase&#45;&gt;simple_htmx</title>
<path fill="none" stroke="black" stroke-dasharray="5,2" d="M56,-384.62C56,-442.4 56,-618.5 56,-618.5 56,-618.5 252.82,-618.5 252.82,-618.5"/>
<polygon fill="black" stroke="black" points="252.82,-622 262.82,-618.5 252.82,-615 252.82,-622"/>
</g>
<!-- simple_json -->
<g id="node4" class="node">
<title>simple_json</title>
<polygon fill="lightblue" stroke="black" points="349.62,-564.5 267.62,-564.5 267.62,-528.5 349.62,-528.5 349.62,-564.5"/>
<text xml:space="preserve" text-anchor="middle" x="308.62" y="-541.45" font-family="Times New Roman,serif" font-size="14.00">simple_json</text>
</g>
<!-- simple_showcase&#45;&gt;simple_json -->
<g id="edge3" class="edge">
<title>simple_showcase&#45;&gt;simple_json</title>
<path fill="none" stroke="black" stroke-dasharray="5,2" d="M83,-384.75C83,-430.51 83,-546.5 83,-546.5 83,-546.5 255.73,-546.5 255.73,-546.5"/>
<polygon fill="black" stroke="black" points="255.73,-550 265.73,-546.5 255.73,-543 255.73,-550"/>
</g>
<!-- simple_process -->
<g id="node5" class="node">
<title>simple_process</title>
<polygon fill="lightblue" stroke="black" points="358.62,-492.5 258.62,-492.5 258.62,-456.5 358.62,-456.5 358.62,-492.5"/>
<text xml:space="preserve" text-anchor="middle" x="308.62" y="-469.45" font-family="Times New Roman,serif" font-size="14.00">simple_process</text>
</g>
<!-- simple_showcase&#45;&gt;simple_process -->
<g id="edge4" class="edge">
<title>simple_showcase&#45;&gt;simple_process</title>
<path fill="none" stroke="black" stroke-dasharray="5,2" d="M111.73,-377.3C173.75,-377.3 265,-377.3 265,-377.3 265,-377.3 265,-444.7 265,-444.7"/>
<polygon fill="black" stroke="black" points="261.5,-444.7 265,-454.7 268.5,-444.7 261.5,-444.7"/>
</g>
<!-- simple_sql -->
<g id="node6" class="node">
<title>simple_sql</title>
<polygon fill="lightblue" stroke="black" points="346.25,-420.5 271,-420.5 271,-384.5 346.25,-384.5 346.25,-420.5"/>
<text xml:space="preserve" text-anchor="middle" x="308.62" y="-397.45" font-family="Times New Roman,serif" font-size="14.00">simple_sql</text>
</g>
<!-- simple_showcase&#45;&gt;simple_sql -->
<g id="edge5" class="edge">
<title>simple_showcase&#45;&gt;simple_sql</title>
<path fill="none" stroke="black" stroke-dasharray="5,2" d="M111.58,-370.1C189.44,-370.1 321,-370.1 321,-370.1 321,-370.1 321,-372.52 321,-372.52"/>
<polygon fill="black" stroke="black" points="317.5,-372.51 321,-382.52 324.5,-372.52 317.5,-372.51"/>
</g>
<!-- simple_web -->
<g id="node7" class="node">
<title>simple_web</title>
<polygon fill="lightblue" stroke="black" points="349.62,-348.5 267.62,-348.5 267.62,-312.5 349.62,-312.5 349.62,-348.5"/>
<text xml:space="preserve" text-anchor="middle" x="308.62" y="-325.45" font-family="Times New Roman,serif" font-size="14.00">simple_web</text>
</g>
<!-- simple_showcase&#45;&gt;simple_web -->
<g id="edge6" class="edge">
<title>simple_showcase&#45;&gt;simple_web</title>
<path fill="none" stroke="black" stroke-dasharray="5,2" d="M111.68,-362.9C182.71,-362.9 296,-362.9 296,-362.9 296,-362.9 296,-360.48 296,-360.48"/>
<polygon fill="black" stroke="black" points="299.5,-360.48 296,-350.48 292.5,-360.49 299.5,-360.48"/>
</g>
<!-- simple_datetime -->
<g id="node8" class="node">
<title>simple_datetime</title>
<polygon fill="lightblue" stroke="black" points="362,-276.5 255.25,-276.5 255.25,-240.5 362,-240.5 362,-276.5"/>
<text xml:space="preserve" text-anchor="middle" x="308.62" y="-253.45" font-family="Times New Roman,serif" font-size="14.00">simple_datetime</text>
</g>
<!-- simple_showcase&#45;&gt;simple_datetime -->
<g id="edge7" class="edge">
<title>simple_showcase&#45;&gt;simple_datetime</title>
<path fill="none" stroke="black" stroke-dasharray="5,2" d="M111.75,-355.7C172.86,-355.7 262,-355.7 262,-355.7 262,-355.7 262,-288.3 262,-288.3"/>
<polygon fill="black" stroke="black" points="265.5,-288.3 262,-278.3 258.5,-288.3 265.5,-288.3"/>
</g>
<!-- simple_testing -->
<g id="node9" class="node">
<title>simple_testing</title>
<polygon fill="lightblue" stroke="black" points="356.38,-204.5 260.88,-204.5 260.88,-168.5 356.38,-168.5 356.38,-204.5"/>
<text xml:space="preserve" text-anchor="middle" x="308.62" y="-181.45" font-family="Times New Roman,serif" font-size="14.00">simple_testing</text>
</g>
<!-- simple_showcase&#45;&gt;simple_testing -->
<g id="edge8" class="edge">
<title>simple_showcase&#45;&gt;simple_testing</title>
<path fill="none" stroke="black" stroke-dasharray="5,2" d="M83,-348.25C83,-302.49 83,-186.5 83,-186.5 83,-186.5 248.99,-186.5 248.99,-186.5"/>
<polygon fill="black" stroke="black" points="248.99,-190 258.99,-186.5 248.99,-183 248.99,-190"/>
</g>
<!-- base -->
<g id="node10" class="node">
<title>base</title>
<polygon fill="lightgray" stroke="black" points="335.62,-132.5 281.62,-132.5 281.62,-96.5 335.62,-96.5 335.62,-132.5"/>
<text xml:space="preserve" text-anchor="middle" x="308.62" y="-109.45" font-family="Times New Roman,serif" font-size="14.00">base</text>
</g>
<!-- simple_showcase&#45;&gt;base -->
<g id="edge9" class="edge">
<title>simple_showcase&#45;&gt;base</title>
<path fill="none" stroke="black" stroke-dasharray="5,2" d="M56,-348.38C56,-290.6 56,-114.5 56,-114.5 56,-114.5 270.08,-114.5 270.08,-114.5"/>
<polygon fill="black" stroke="black" points="270.08,-118 280.08,-114.5 270.08,-111 270.08,-118"/>
</g>
<!-- testing -->
<g id="node11" class="node">
<title>testing</title>
<polygon fill="lightgray" stroke="black" points="335.62,-60.5 281.62,-60.5 281.62,-24.5 335.62,-24.5 335.62,-60.5"/>
<text xml:space="preserve" text-anchor="middle" x="308.62" y="-37.45" font-family="Times New Roman,serif" font-size="14.00">testing</text>
</g>
<!-- simple_showcase&#45;&gt;testing -->
<g id="edge10" class="edge">
<title>simple_showcase&#45;&gt;testing</title>
<path fill="none" stroke="black" stroke-dasharray="5,2" d="M28,-348.15C28,-279.61 28,-42.5 28,-42.5 28,-42.5 269.69,-42.5 269.69,-42.5"/>
<polygon fill="black" stroke="black" points="269.69,-46 279.69,-42.5 269.69,-39 269.69,-46"/>
</g>
</g>
</svg>
